# xmcd
#
# Track frame offsets:
#	150
#	12655
#	26697
#	37077
#	50170
#	63620
#	77857
#	91607
#	106570
#	117437
#	130535
#	143075
#
# Disc length: 2083
#
# Revision: 2
# Processed by: cddbd v1.5.1PL0 Copyright (c) Steve Scherf et al.
# Submitted via: EasyCDDAExtractor 5.0.6
# Normalized: r1:DSETVAR1
#
DISCID=9e08210c
DTITLE=Various Artist - The Blues - Volume 3
DYEAR=1988
DGENRE=Blues
TTITLE0=Washboard Sam - Diggin' My Potatoes
TTITLE1=Willie Dixon - Walking The blues
TTITLE2=Little Milton - Lonely No More
TTITLE3=Howlin' Wolf - I Asked For Water (She Gave Me Gasoline)
TTITLE4=Little Walter - Off The Wall
TTITLE5=Muddy Waters - Rollin' Stone
TTITLE6=John Lee Hooker - It's My Own Fault
TTITLE7=Muddy Waters - Baby, Please Don't Go
TTITLE8=Sonny Boy Williamson - Fattening Frogs For Snakes
TTITLE9=Jimmy Witherspoon - Time Brings About A Change
TTITLE10=Elmore James - The Sun Is Shining
TTITLE11=Jimmy Rogers - The World's In A Tangle
EXTD=
EXTT0=
EXTT1=
EXTT2=
EXTT3=
EXTT4=
EXTT5=
EXTT6=
EXTT7=
EXTT8=
EXTT9=
EXTT10=
EXTT11=
PLAYORDER=
